PathFileType	4	(X/Y/Z)	Formatted/subject04/trials/walk2/markers.trc
DataRate	CameraRate	NumFrames	NumMarkers	Units	OrigDataRate	OrigDataStartFrame	OrigNumFrames
199.9999999999954	199.9999999999954	4	64	m	199.9999999999954	167	223
Frame#	Time	CLAV			C7			RACR			RASH			RPSH			RLEL			RMEL			RUA1			RUA2			RUA3			RFAsuperior			RFAradius			RFAulna			RASI			RPSI			RCAL			RTOE			RMT5			RTH1			RTH2			RTH3			RTB1			RTB2			RTB3			RLFC			RMFC			RLMAL			RMMAL			RHJC			RKJC			REJC			RAJC			RSJC			LACR			LASH			LPSH			LLEL			LMEL			LUA1			LUA2			LUA3			LFAsuperior			LFAradius			LFAulna			LASI			LPSI			LCAL			LTOE			LMT5			LTH1			LTH2			LTH3			LTB1			LTB2			LTB3			LLFC			LMFC			LLMAL			LMMAL			LHJC			LKJC			LEJC			LAJC			LSJC			
		X1	Y1	Z1	X2	Y2	Z2	X3	Y3	Z3	X4	Y4	Z4	X5	Y5	Z5	X6	Y6	Z6	X7	Y7	Z7	X8	Y8	Z8	X9	Y9	Z9	X10	Y10	Z10	X11	Y11	Z11	X12	Y12	Z12	X13	Y13	Z13	X14	Y14	Z14	X15	Y15	Z15	X16	Y16	Z16	X17	Y17	Z17	X18	Y18	Z18	X19	Y19	Z19	X20	Y20	Z20	X21	Y21	Z21	X22	Y22	Z22	X23	Y23	Z23	X24	Y24	Z24	X25	Y25	Z25	X26	Y26	Z26	X27	Y27	Z27	X28	Y28	Z28	X29	Y29	Z29	X30	Y30	Z30	X31	Y31	Z31	X32	Y32	Z32	X33	Y33	Z33	X34	Y34	Z34	X35	Y35	Z35	X36	Y36	Z36	X37	Y37	Z37	X38	Y38	Z38	X39	Y39	Z39	X40	Y40	Z40	X41	Y41	Z41	X42	Y42	Z42	X43	Y43	Z43	X44	Y44	Z44	X45	Y45	Z45	X46	Y46	Z46	X47	Y47	Z47	X48	Y48	Z48	X49	Y49	Z49	X50	Y50	Z50	X51	Y51	Z51	X52	Y52	Z52	X53	Y53	Z53	X54	Y54	Z54	X55	Y55	Z55	X56	Y56	Z56	X57	Y57	Z57	X58	Y58	Z58	X59	Y59	Z59	X60	Y60	Z60	X61	Y61	Z61	X62	Y62	Z62	X63	Y63	Z63	X64	Y64	Z64	

168	2.245	2.299584072100973	1.451348200029984	-0.4763479674969621	2.195660868203283	1.547580448511604	-0.5122198065795566	2.239822846960696	1.501302731261954	-0.3363580970894888	2.293094197732759	1.451228951659479	-0.3078861795303445	2.193700034179944	1.47320092813382	-0.3119566219457846	2.19568681763138	1.166551994283479	-0.2435273393316131	2.156004539908117	1.169433833401725	-0.3199329997641202	2.2232546028447	1.351236401337036	-0.2659423622068839	2.165850694577237	1.315557174649578	-0.2616217662593279	2.210334228313503	1.250784094196584	-0.2556107689250913	2.23347612930222	1.09061048771555	-0.3118484646661435	2.311875158615116	0.9222826307473093	-0.2857372420109549	2.255755938080438	0.9208063107893758	-0.2384233681189678	2.269605230409712	1.006079280270017	-0.3651356548154698	2.096959313915048	1.045493951128072	-0.4589907509715023	1.958236669844668	0.3047108348228431	-0.3857778225089621	2.089735844927588	0.1100375657688879	-0.4007272135802593	2.060467340771612	0.1073707926601064	-0.3261658167191849	2.250318872048881	0.8500681730907332	-0.3069382166303337	2.313202312414108	0.7641462135167844	-0.3083666269327356	2.286858096937054	0.6161549562983608	-0.308486020050136	2.251417849327539	0.3801606421261359	-0.3655396918211932	2.14468977307953	0.3455744769763199	-0.3225830538034484	2.104905346911488	0.2796573655093441	-0.385497058525249	2.336575231470162	0.505224649671167	-0.3121419030220708	2.341374102037259	0.5097387232757569	-0.4376032814029349	2.003460087266137	0.2401234582982602	-0.3248639738400403	2.006938298692367	0.2367646097839525	-0.4260057148077908	2.191603971535269	0.9186274511397425	-0.4242340500906229	2.345836772795305	0.507244128063182	-0.3807932268467438	2.177514863131782	1.163165419517884	-0.2792929399990449	1.98744708401237	0.2409014814690213	-0.382788225807324	2.246533001816443	1.461521724038884	-0.3097929782798574	2.252177748649306	1.503571724884378	-0.6842384366744998	2.307206953255209	1.442670077347896	-0.6986989593810392	2.19986125661817	1.466399811940184	-0.7030950371897146	2.204858332494986	1.170801428763165	-0.790176496878964	2.156599044625535	1.164107457784557	-0.7194007982820354	2.223567530219551	1.37656920927302	-0.7625726839664835	2.160219634534949	1.309050227841494	-0.7587349319302797	2.219824108347522	1.24096277425315	-0.7763509249264936	2.236877726141481	1.094892602935065	-0.7313639138317285	2.307794133919293	0.9211545658478129	-0.7346816165572988	2.257099698382049	0.9150714140178958	-0.7896079243571826	2.289767601755168	1.012442867838931	-0.6217178376832944	2.106577719479714	1.049450200431816	-0.5516916117116117	2.101139854988388	0.06712027568028031	-0.5590238284094842	2.341475423832267	0.04684033509213265	-0.5488527173048445	2.311796400970326	0.02477891090304063	-0.6344049791492441	2.219939459368392	0.8546626802030506	-0.6874358514194218	2.288674397478584	0.7314169594859046	-0.6676856201195208	2.219994663057308	0.6095259974398202	-0.6617243242066123	2.257913150336849	0.3236240889535487	-0.5939826165492501	2.216410913927721	0.2677117437976687	-0.6358710382373696	2.229799528015628	0.1879809009961714	-0.5805207412243671	2.258118605168952	0.4954926064194724	-0.6374870711711443	2.259123783369104	0.4970352775944513	-0.5186281318326502	2.1816551206774	0.06643680777538952	-0.6233780692329189	2.18765757589069	0.06795272867351099	-0.5223102499267804	2.203662607668553	0.9243068700781288	-0.5831483949836038	2.261429953591912	0.4942943588678076	-0.5756578391606798	2.181556199259574	1.160821553083028	-0.756360083952635	2.169825480769106	0.05739189420979218	-0.5651501573910906	2.260645757338894	1.452962849727301	-0.7006057581305521	
169	2.25	2.305134067998502	1.451960180584242	-0.4762745871476357	2.201315504055498	1.548207328471053	-0.512408492275969	2.244997456906034	1.501890998783403	-0.3364370941858069	2.298187793790591	1.45180755505	-0.3078310278333255	2.198806637711642	1.47378770594802	-0.3121663228546539	2.198872038885237	1.167579371812417	-0.2431155451820144	2.159734627746211	1.170437418452576	-0.3198026218434358	2.227506538662208	1.352060872191398	-0.2658617026868171	2.169898503957513	1.316677088627584	-0.2618385635010332	2.214018772973627	1.251703389769244	-0.2553355539977936	2.236849534589453	1.091345552753193	-0.3109970030797454	2.314492261490196	0.9228177124932572	-0.2839332783913001	2.258058864042021	0.9216588403377513	-0.2369856718017366	2.275683168537633	1.007178938116293	-0.3655902387837516	2.10271956103689	1.046114107813343	-0.4590597572193379	1.972169469949718	0.3006303912042461	-0.3868216033304166	2.107899538082217	0.1088479439356613	-0.4013143790985091	2.078473320715748	0.1055677325317001	-0.3268395722114592	2.25679368582491	0.851492268583276	-0.3068462064011304	2.320673204358455	0.7663063168795583	-0.3081543766655813	2.296047118045302	0.6180197943597957	-0.3084818958263433	2.264249971456693	0.3812187395173965	-0.3657426873738739	2.158020328079763	0.3447913242218013	-0.3230734465550925	2.119530643619983	0.278231570779959	-0.3861161428152673	2.347058080186318	0.5076765555062802	-0.3120795694711918	2.352189862587952	0.5123580035277998	-0.437521637128967	2.018622630529232	0.2369395110197776	-0.3257590373746542	2.022415791537633	0.2336867405982387	-0.426892923872723	2.19764860574113	0.9194710680245057	-0.4242637052012705	2.356518355396901	0.5099066182898653	-0.380702333746827	2.180931725770111	1.164179751563024	-0.2789966649746264	2.002746452059612	0.237469715552336	-0.3837237369734893	2.251632691225407	1.462104156738177	-0.3098618967860668	2.258294995004272	1.504228995031323	-0.6842822204297248	2.313358700935247	1.443326182082761	-0.6986058517172914	2.206027052369982	1.467064745052622	-0.703287970340326	2.212050982545191	1.171331386733095	-0.7904361622602132	2.163553526134002	1.164508227368894	-0.7198358163478321	2.230141909134139	1.377142666225175	-0.7627446532413401	2.166950889473191	1.309463901638579	-0.759142301210902	2.226789928671054	1.241528718654912	-0.7765497175819116	2.244744736906048	1.096122264841817	-0.731350892543396	2.317549601166143	0.9231516435895326	-0.7337311232220713	2.266975111790183	0.9162410012753406	-0.7886701245446237	2.295125315854178	1.012960383457094	-0.6222417745822545	2.112075281183449	1.049863481751253	-0.551796092664135	2.101295317767752	0.06733439582485864	-0.5590156798350959	2.341617401329001	0.04681538743911262	-0.5490067043371278	2.311862820315553	0.02482539919479709	-0.6345511119142015	2.224951053863616	0.8549493820912466	-0.6874700832442832	2.292373245629802	0.7310009580376795	-0.6675927780803259	2.22242107703239	0.6098328369394705	-0.6616910719111482	2.258595798733757	0.3236029269688888	-0.5939486601296655	2.216959996079783	0.2677943965039129	-0.6358429760210879	2.230206202422456	0.1880127911809673	-0.5805315745736407	2.259323732085435	0.495416005253997	-0.6373707852859684	2.260184107124474	0.496982506717731	-0.5185110212520603	2.181791546396924	0.06658685697255889	-0.6234193898874179	2.187839483858144	0.06804805639844674	-0.5223534760848003	2.20925858902867	0.9247892951497063	-0.5832239526405149	2.262474687380009	0.4942578504217219	-0.5755541574655751	2.188652141750645	1.161289192136791	-0.7567050832339306	2.169967547983492	0.05754218324699317	-0.5651902949438592	2.266803598370063	1.453622783770938	-0.7006367206700326	
170	2.255	2.310683590082327	1.452505672188917	-0.4761868300726935	2.206974368255824	1.548773015337869	-0.5125799990270401	2.250178818082952	1.50241688188671	-0.3365012304234083	2.303285993326071	1.452321125866129	-0.3077625200717756	2.203919585801517	1.474314719271114	-0.3123597915245279	2.202008258387253	1.168569445999877	-0.2426837322130698	2.163414313881339	1.171403143016827	-0.3196466500165663	2.231745091535454	1.352834770009859	-0.2657652694799683	2.173929882150025	1.317757930046711	-0.2620369571734411	2.217670288409004	1.252578796959952	-0.255042224559122	2.24017225043078	1.092051096051754	-0.3101286488487215	2.317076889928303	0.9233386872331852	-0.2821238151290574	2.260338764249127	0.9224908515265967	-0.2355382447694106	2.281756154370004	1.008212851584485	-0.3660422281152795	2.108467207454402	1.046665264659252	-0.4591081221968315	1.986199933887588	0.2963266835086085	-0.387852387092547	2.126205235438171	0.1076046596907254	-0.4018421079209841	2.096627020930872	0.1036971147876336	-0.32745784052789	2.263219060567613	0.8528365980553145	-0.3067436895149985	2.328060939039147	0.7683788938854424	-0.3079173878679703	2.305113103154294	0.6198240163621185	-0.3084552997005779	2.277033706530943	0.382209702690456	-0.3659042135427497	2.171351677104905	0.3438922155568042	-0.3235316202150437	2.134214462307107	0.2766855010843929	-0.3866990401931536	2.357379034510446	0.5100673660079691	-0.3119826212625941	2.362866789701994	0.514920924083057	-0.4374030781323694	2.03389203048037	0.2335916511369988	-0.3266259908997129	2.038012393746176	0.2304445164696797	-0.4277504178894305	2.203693028008214	0.9202500498240348	-0.4242945494201148	2.367050023409958	0.512515742613938	-0.3805744041514514	2.184297899199033	1.165156614504336	-0.2786776590436885	2.018163904697279	0.2338626252724149	-0.3846328283552919	2.256737799721194	1.462624024696694	-0.3099161118838175	2.264408620979165	1.504820928965858	-0.684309016225786	2.319502818555687	1.443913926326007	-0.6984969396817076	2.212187098429168	1.467667007203392	-0.70346199285068	2.219222557695851	1.171802275556716	-0.7906789082089266	2.170488565237827	1.164850599963883	-0.7202541979818653	2.236705473102076	1.377654148596924	-0.7628987336685707	2.173669241935217	1.309819112848427	-0.7595314547689517	2.233738074356031	1.242034057344419	-0.776731439239295	2.252587651173976	1.097312664694994	-0.7313144757255428	2.327286560273897	0.9251409355357828	-0.7327351206580968	2.276842744086172	0.9173924269881704	-0.7876824758524982	2.300460920986669	1.013440978046376	-0.6227604226978833	2.117553873302461	1.050218339497632	-0.551878933226355	2.101451656614727	0.06754923564445933	-0.5590037063709501	2.341759777039758	0.0467837219754867	-0.5491693867338154	2.311924562327983	0.02486570698910126	-0.634704180380274	2.22994516262262	0.8551950733454252	-0.6875047953303159	2.296046910983849	0.7305571635904163	-0.6675042617376519	2.224829202682479	0.6101256611387682	-0.661661245461971	2.259264489102771	0.3235831137403882	-0.5939209696966377	2.217494991467644	0.2678767794654868	-0.635818215766913	2.230605950698814	0.1880453566647229	-0.5805464839132444	2.260506494029368	0.495337882511166	-0.6372606220206201	2.261226738777271	0.4969298958237048	-0.5184002652175387	2.181923791212044	0.06673594808749439	-0.6234612349575144	2.188023845389328	0.06814269374673054	-0.5223976807466141	2.214843584017839	0.9252248914784442	-0.5832987995797496	2.263499101753942	0.4942221149440922	-0.5754573371185561	2.195727457565924	1.161698136953256	-0.7570333473117941	2.170109762968889	0.05769102718088076	-0.5652301547537966	2.272954624950809	1.454216825156573	-0.7006505314937493	
171	2.26	2.316234297587835	1.452983601361312	-0.4760856559712549	2.212639013973817	1.549276714872853	-0.5127342616547107	2.255370094533252	1.502879520161196	-0.3365508247955961	2.308392111878793	1.452768663858777	-0.3076814974134164	2.20904218775507	1.474781246011276	-0.3125368865430409	2.205105921942073	1.169520476941411	-0.2422354621187179	2.167050266856239	1.172330046309687	-0.3194668452740789	2.235977185432191	1.353556518685334	-0.2656544004068585	2.177952472251703	1.318797414775653	-0.2622162604366721	2.221297520816923	1.253408709254178	-0.2547334288140626	2.243449495566217	1.0927235606428	-0.3092480402442468	2.319627054025561	0.9238377058970536	-0.2803167625115626	2.262594376179379	0.9232966328862011	-0.2340876591848113	2.287820138643003	1.009179238446735	-0.3664887278145441	2.114201066920454	1.047147999099878	-0.4591369818955265	2.000330212059519	0.2918068934699753	-0.3888652169066686	2.144644946519413	0.1063189622991012	-0.402307085555189	2.114922775863867	0.10177059737271	-0.3280166833202047	2.269593650600849	0.8540981434893414	-0.3066312284498457	2.335363959763268	0.7703594887648448	-0.307658215693127	2.314053021124083	0.6215618932552039	-0.3084089631698428	2.289763840674672	0.3831324787565696	-0.3660260996730426	2.184681888293075	0.3428792289552981	-0.323956906749162	2.148953500897828	0.2750243108730623	-0.3872437976981821	2.367534474129025	0.512389796225533	-0.3118555976899383	2.373398305738409	0.5174212214682785	-0.4372520239681111	2.049268316656705	0.2300881227017225	-0.327460484660394	2.053726124163166	0.2270466358925235	-0.4285738314266838	2.209733120196974	0.9209635650490257	-0.4243251492592104	2.377426191423887	0.5150647168645108	-0.3804140337307907	2.187622122192272	1.166094653174169	-0.2783387512750443	2.033698930034223	0.2300890204010078	-0.3855107625117754	2.261851639923035	1.463080457968115	-0.309956004451189	2.270518375814769	1.505346517959709	-0.6843193772750499	2.325638753396007	1.444432142743667	-0.69837333104271	2.218340835342387	1.468205731468365	-0.7036171513027045	2.226377485287533	1.17221210416922	-0.7909058164786085	2.177407479710658	1.165132143772047	-0.7206578247664781	2.243259639088775	1.378102010413883	-0.7630360577363655	2.180376867113989	1.310113428878397	-0.7599044684483074	2.240671874850173	1.242477031679394	-0.7768970450596844	2.260407547109048	1.09846054258031	-0.7312546973932169	2.337004164915639	0.9271193187599454	-0.731693713049404	2.286704625032443	0.9185242719115476	-0.7866474324536974	2.305776183279597	1.013881463733106	-0.6232705468138687	2.123014436336289	1.050514806904144	-0.5519411000200262	2.101609200152362	0.06776612963066637	-0.5589892510256402	2.341902641615034	0.04674511954438908	-0.5493408175853992	2.31198205918251	0.02489999216133421	-0.6348644371211744	2.234922826017488	0.855398889998645	-0.6875386287945273	2.299699226378289	0.7300860950929996	-0.6674191750809394	2.227225552600122	0.6104033810323725	-0.6616343534038042	2.259925286142798	0.3235638086351353	-0.5938995527652221	2.218021151254059	0.2679589532758186	-0.6357971586515604	2.231001904445331	0.1880783032705655	-0.5805658318362004	2.261675974789395	0.4952578335241454	-0.6371565070024494	2.262260766765856	0.4968764958589125	-0.5182957665166595	2.182052817056074	0.06688481736276236	-0.6235044733624286	2.188210807928374	0.06823713238259899	-0.5224436897885866	2.220417105206669	0.9256119645331562	-0.5833713072265958	2.264512654769385	0.4941862418342131	-0.5753672096216355	2.20278612803265	1.162046181042027	-0.7573463322012788	2.170252411409268	0.05783933647036904	-0.5652707180204884	2.27909828144025	1.454743936853005	-0.7006478380804827	
